<?xml version="1.0" standalone="no"?>
<!DOCTYPE svg PUBLIC "-//W3C//DTD SVG 20010904//EN"
 "http://www.w3.org/TR/2001/REC-SVG-20010904/DTD/svg10.dtd">
<svg version="1.0" xmlns="http://www.w3.org/2000/svg"
 width="1024.000000pt" height="768.000000pt" viewBox="0 0 1024.000000 768.000000"
 preserveAspectRatio="xMidYMid meet">

<g transform="translate(0.000000,768.000000) scale(0.100000,-0.100000)"
fill="#000000" stroke="none">
<path d="M2 7198 l3 -483 622 -1 c343 0 626 -4 630 -8 5 -4 8 -217 8 -472 l0
-464 -632 0 -633 0 2 -487 3 -488 620 0 c341 0 625 -4 631 -7 8 -5 11 -146 11
-471 l0 -464 -366 -1 c-201 0 -486 -1 -633 -1 l-268 -1 0 -485 0 -485 633 0
633 0 -1 -467 0 -468 -632 -3 -633 -2 0 -490 0 -489 632 1 633 2 0 -482 0
-482 650 0 650 0 0 480 c0 421 2 480 15 481 16 1 1165 1 1216 0 l31 -1 -1
-480 -2 -480 648 0 648 0 2 482 3 482 619 -2 c340 -1 622 -4 625 -8 3 -3 6
-218 6 -477 l0 -472 653 -3 652 -2 0 480 0 480 33 0 c577 3 1209 1 1215 -5 4
-3 7 -219 7 -478 l0 -472 653 -3 652 -2 0 490 0 490 -639 0 c-502 0 -640 3
-643 13 -2 6 -4 217 -3 467 l1 455 642 3 642 2 0 490 0 490 -643 0 -642 0 0
457 c0 452 0 458 21 468 13 6 235 10 642 9 l622 -1 0 489 0 488 -112 0 c-62 1
-350 1 -640 0 -424 -1 -528 2 -529 12 -1 7 -2 215 -3 461 -1 361 1 450 12 459
9 8 200 11 643 11 l629 0 0 489 0 488 -642 2 -642 3 -1 472 0 473 -647 0 -648
0 -2 -472 -3 -473 -630 0 -630 0 0 473 0 472 -645 0 -646 0 1 -462 c0 -255 -1
-469 -3 -475 -3 -10 -138 -13 -631 -13 l-626 0 0 473 0 472 -647 3 -648 2 0
-477 0 -478 -634 3 -635 2 3 458 c1 251 0 465 -2 475 -4 16 -43 17 -643 17
l-639 0 2 -482z m3815 -492 c4 -4 8 -216 8 -471 l1 -465 -630 -2 -631 -3 0
469 c0 433 1 469 17 475 25 9 1227 6 1235 -3z m2558 -462 l0 -469 -627 -3
-628 -2 0 465 c0 452 1 466 19 473 11 4 293 7 628 6 l608 -1 0 -469z m2547
458 c10 -8 13 -105 13 -469 l0 -458 -628 -3 -627 -2 0 465 c0 452 1 466 19
473 33 12 1208 7 1223 -6z m-6384 -956 c9 -5 12 -128 12 -477 0 -340 -3 -468
-11 -463 -6 3 -291 6 -634 6 l-622 -1 1 466 c1 430 2 466 18 472 25 9 1222 6
1236 -3z m2558 2 c7 -5 12 -883 5 -930 -1 -5 -283 -8 -629 -8 l-627 0 0 467
c0 431 1 466 17 472 22 8 1221 6 1234 -1z m2552 0 c10 -1 12 -99 10 -467 l-3
-466 -630 0 -630 0 0 460 c0 454 0 460 21 470 13 7 224 9 620 7 329 -1 605 -3
612 -4z m-3831 -962 c4 -4 8 -216 8 -471 l0 -464 -621 1 c-341 1 -625 -1 -630
-4 -10 -7 -13 921 -2 937 7 12 1233 13 1245 1z m2558 -461 l0 -470 -628 0
-627 -1 0 461 c0 278 4 465 10 471 5 5 250 9 627 9 l618 0 0 -470z m2547 458
c11 -9 13 -98 13 -470 l0 -458 -628 -3 -627 -3 0 466 c0 452 1 466 19 473 34
12 1207 7 1223 -5z m-6382 -959 c7 -7 9 -168 8 -467 -2 -251 0 -458 5 -460 4
-1 -275 -1 -620 1 -346 1 -633 4 -638 6 -8 3 -11 152 -10 461 0 423 1 458 17
464 31 11 1227 6 1238 -5z m2556 4 c5 -4 9 -196 9 -465 l-1 -458 -629 0 -630
0 -1 455 c0 250 3 460 7 465 8 11 1228 13 1245 3z m2539 2 c6 -1 13 -2 18 -1
4 0 7 -208 7 -464 l0 -464 -624 -1 c-493 0 -626 2 -633 12 -4 7 -8 211 -8 453
-1 337 2 444 11 455 11 13 91 15 616 14 332 -1 608 -3 613 -4z m-3810 -1417
l0 -468 -630 0 -630 0 0 468 0 467 630 0 631 0 -1 -467z m2550 -6 l0 -467
-625 2 -625 3 -3 468 -2 467 627 -2 628 -3 0 -468z m2560 10 c0 -326 -3 -461
-11 -468 -7 -5 -259 -8 -625 -7 l-614 3 -3 468 -2 467 627 -2 628 -3 0 -458z
m-6390 -1425 c-3 -10 -135 -12 -632 -10 l-628 3 -1 467 -2 468 632 2 631 3 3
-460 c1 -253 0 -466 -3 -473z m2557 916 c2 -7 3 -218 3 -468 l-1 -455 -629 0
-630 0 0 468 0 467 626 0 c493 0 628 -3 631 -12z m2558 -457 l0 -469 -624 -1
c-485 -1 -626 2 -633 12 -7 9 -11 895 -4 922 0 3 285 5 631 5 l630 0 0 -469z"/>
</g>
</svg>
