<?xml version="1.0" standalone="no"?>
<!DOCTYPE svg PUBLIC "-//W3C//DTD SVG 20010904//EN"
 "http://www.w3.org/TR/2001/REC-SVG-20010904/DTD/svg10.dtd">
<svg version="1.0" xmlns="http://www.w3.org/2000/svg"
 width="1014.000000pt" height="768.000000pt" viewBox="0 0 1014.000000 768.000000"
 preserveAspectRatio="xMidYMid meet">

<g transform="translate(0.000000,768.000000) scale(0.100000,-0.100000)"
fill="#000000" stroke="none">
<path d="M0 7530 l0 -150 150 0 150 0 0 150 0 150 -150 0 -150 0 0 -150z"/>
<path d="M610 7530 l0 -149 -152 -3 -153 -3 -3 -152 -3 -153 155 0 155 0 3
-157 c3 -143 5 -158 21 -157 9 1 78 2 152 3 l135 1 0 155 0 155 155 0 155 0 0
-155 0 -154 -152 -3 -153 -3 0 -153 0 -152 -157 0 -158 0 0 155 0 155 -155 0
-156 0 1 138 c1 75 1 145 0 155 0 15 -14 17 -150 17 l-150 0 0 -155 0 -155
150 0 150 0 0 -155 0 -155 -150 0 -150 0 0 -150 0 -150 149 0 c89 0 151 -4
153 -10 2 -5 2 -75 0 -155 l-3 -145 -150 0 -149 0 0 -155 0 -156 151 3 151 3
-1 153 -2 152 156 0 155 0 0 -155 0 -155 -156 0 -155 0 2 -152 2 -153 -152 -3
-151 -3 0 -150 0 -150 151 3 150 3 0 148 0 147 155 0 154 0 0 -150 0 -150
-155 0 -156 0 2 -152 1 -153 -151 -3 -151 -3 0 -154 0 -154 151 -3 150 -3 0
-150 0 -150 -150 -3 -151 -3 0 -149 0 -150 149 0 150 0 3 -151 c2 -83 1 -153
-1 -155 -2 -2 -71 -4 -153 -4 l-148 0 0 -155 0 -155 150 0 149 0 3 -152 3
-153 153 -3 152 -3 0 -149 0 -149 -152 -3 -153 -3 -3 -153 -3 -152 -149 0
-150 0 0 -155 0 -155 150 0 149 0 3 -152 3 -153 153 -3 152 -3 0 -149 0 -150
-155 0 -156 0 2 148 1 147 -151 3 -151 3 0 -150 0 -150 151 -3 150 -3 0 -150
0 -150 -150 -3 -151 -3 0 -154 0 -155 150 0 150 0 1 -140 c1 -77 2 -146 3
-152 1 -10 40 -14 154 -16 l152 -3 0 156 0 155 153 0 c85 0 156 2 158 4 2 2 3
72 1 155 l-3 151 -155 0 -154 0 0 155 0 155 155 0 154 0 3 -152 3 -153 153 -3
152 -3 0 -154 0 -155 -155 0 -155 0 0 -155 0 -156 -137 1 c-76 1 -146 1 -155
0 -16 0 -18 -14 -18 -150 l0 -150 155 0 155 0 0 150 0 150 155 0 155 0 0 155
0 155 150 0 150 0 0 -150 c0 -178 -17 -162 175 -158 l130 3 3 153 3 152 154 0
155 0 0 -154 0 -155 -143 0 c-78 0 -148 -1 -154 -1 -10 0 -13 -37 -13 -150 l0
-150 155 0 155 0 0 149 c0 83 3 151 7 153 5 2 74 2 156 0 l147 -3 0 -150 0
-149 150 0 151 0 -3 151 -3 151 -147 -1 -148 -2 0 156 0 155 150 0 149 0 3
-152 3 -153 150 -1 150 -1 3 -152 3 -151 154 0 155 0 0 149 0 150 148 3 c81 2
150 2 155 0 4 -2 7 -70 7 -153 l0 -149 150 0 151 0 -3 152 -3 151 -147 -2
-148 -2 0 155 0 156 150 0 150 0 0 -155 0 -155 155 0 155 0 0 -150 0 -150 155
0 155 0 0 150 0 149 153 3 152 3 3 153 3 152 149 0 149 0 3 -152 3 -153 153
-3 152 -3 0 -149 0 -150 155 0 155 0 0 150 0 150 155 0 155 0 0 155 0 155 150
0 150 0 0 -156 0 -155 -147 2 -148 2 -3 -151 -3 -152 151 0 150 0 0 149 c0 83
3 151 8 153 4 2 73 2 155 0 l147 -3 0 -150 0 -149 155 0 154 0 3 151 3 152
150 1 150 1 3 153 3 152 149 0 150 0 0 -155 0 -156 -147 2 -148 1 -3 -151 -3
-151 150 0 150 0 3 150 3 151 150 0 150 1 3 -151 3 -151 154 0 155 0 0 150 c0
113 -3 150 -12 150 -7 0 -77 1 -155 1 l-143 0 0 155 0 154 155 0 154 0 3 -152
3 -153 130 -3 c192 -4 175 -20 175 158 l0 150 150 0 150 0 0 -155 0 -155 155
0 155 0 0 -150 0 -150 155 0 155 0 0 150 c0 136 -2 150 -17 150 -10 1 -80 1
-155 0 l-138 -1 0 156 0 155 -155 0 -155 0 0 155 0 154 153 3 152 3 3 153 3
152 154 0 155 0 0 -155 0 -155 -154 0 -155 0 -3 -151 c-2 -83 -1 -153 1 -155
2 -2 73 -4 158 -4 l153 0 0 -155 0 -156 153 3 c113 2 152 6 153 16 1 6 2 75 3
152 l1 140 150 0 150 0 0 155 0 154 -151 3 -150 3 0 150 0 150 150 3 151 3 0
150 0 150 -151 -3 -151 -3 1 -147 2 -148 -156 0 -155 0 0 150 0 149 153 3 152
3 3 153 3 152 149 0 150 0 0 155 0 155 -150 0 -149 0 -3 153 -3 152 -152 3
-153 3 0 149 0 149 153 3 152 3 3 153 3 152 149 0 150 0 0 155 0 155 -150 0
-150 0 0 155 0 155 150 0 150 0 0 150 0 149 -151 3 -150 3 0 150 0 150 150 3
151 3 0 154 0 154 -151 3 -151 3 1 153 2 152 -156 0 -155 0 0 150 0 150 154 0
155 0 0 -147 0 -148 150 -3 151 -3 0 150 0 150 -151 3 -151 3 1 153 0 152
-154 0 -155 0 0 155 0 155 155 0 156 0 -2 -152 -1 -153 151 -3 151 -3 0 156 0
155 -149 0 -150 0 -3 145 c-2 80 -1 150 0 155 2 6 64 10 153 10 l149 0 0 150
0 150 -150 0 -150 0 0 155 0 155 150 0 150 0 0 155 0 155 -150 0 -149 0 -3
153 -3 152 -152 3 -153 3 0 149 0 150 -155 0 -155 0 0 -150 0 -150 -155 0
-155 0 0 -155 0 -155 -150 0 -150 0 0 155 0 156 148 -2 147 -1 3 151 3 151
-151 0 -150 0 0 -149 c0 -89 -4 -151 -10 -153 -5 -1 -75 -2 -155 0 l-145 3 0
150 0 149 -155 0 -156 0 3 -151 3 -151 153 1 152 2 0 -156 0 -155 -155 0 -155
0 0 155 0 155 -155 0 -155 0 0 150 0 150 -150 0 -151 0 3 -151 3 -151 148 1
147 2 0 -156 0 -155 -150 0 -150 0 0 155 0 155 -155 0 -155 0 0 150 0 150
-155 0 -154 0 -3 -151 -3 -150 -150 0 -150 0 -3 150 -3 151 -149 0 -150 0 0
-150 0 -150 -155 0 -155 0 0 150 0 150 -155 0 -155 0 0 -150 0 -149 -152 -3
-153 -3 -3 -152 -3 -153 -149 0 -149 0 -3 153 -3 152 -152 3 -153 3 0 149 0
150 -155 0 -155 0 0 -148 c0 -82 -2 -151 -4 -153 -2 -2 -72 -3 -155 -1 l-151
3 0 150 0 149 -150 0 -149 0 -3 -151 -3 -150 -150 0 -150 0 -3 150 -3 151
-154 0 -155 0 0 -150 0 -150 -155 0 -155 0 0 -155 0 -155 -150 0 -150 0 0 155
0 156 148 -2 147 -1 3 151 3 151 -151 0 -150 0 0 -150 0 -150 -155 0 -155 0 0
-155 0 -155 -155 0 -155 0 0 155 0 156 153 -2 152 -1 3 151 3 151 -156 0 -155
0 0 -149 0 -150 -145 -3 c-80 -2 -150 -1 -155 0 -6 2 -10 64 -10 153 l0 149
-150 0 -151 0 3 -151 3 -151 145 -1 145 -2 3 -152 3 -153 -151 0 -150 0 0 155
0 155 -155 0 -155 0 0 150 0 150 -155 0 -155 0 0 -150z m310 -305 l0 -155
-155 0 -155 0 0 155 0 155 155 0 155 0 0 -155z m2460 -1 l0 -154 155 0 155 0
0 155 0 155 150 0 150 0 0 -155 0 -155 155 0 155 0 0 155 0 155 155 0 155 0 0
-155 0 -155 155 0 155 0 0 -155 0 -155 150 0 150 0 0 155 0 155 155 0 155 0 0
155 0 155 155 0 155 0 0 -155 0 -155 155 0 155 0 0 155 0 155 150 0 150 0 0
-155 0 -155 155 0 155 0 0 155 0 155 155 0 155 0 0 -155 0 -155 155 0 155 0 0
-155 0 -155 150 0 150 0 0 155 0 155 155 0 156 0 -3 -156 -3 -156 -152 1 -153
2 0 -156 0 -155 155 0 155 0 0 155 0 156 153 -2 152 -1 3 156 3 156 154 0 155
0 0 -155 0 -155 150 0 150 0 0 155 0 155 155 0 155 0 0 155 0 155 155 0 155 0
0 -155 0 -155 154 0 154 0 1 -155 2 -155 -156 0 -155 0 0 -155 0 -155 155 0
155 0 0 -150 0 -150 -155 0 -155 0 0 -155 0 -155 -153 0 c-85 0 -156 -2 -158
-4 -2 -2 -3 -72 -1 -155 l3 -151 155 0 154 0 0 -155 0 -155 -155 0 -155 0 0
-150 0 -150 155 0 155 0 0 -155 0 -155 155 0 155 0 0 -155 0 -155 -155 0 -155
0 0 -155 0 -155 155 0 156 0 -3 -147 -3 -148 -152 -3 -153 -3 0 -154 0 -155
155 0 155 0 0 -155 0 -155 -155 0 -155 0 0 -155 0 -155 -155 0 -155 0 0 -150
0 -150 155 0 155 0 0 -155 0 -155 155 0 155 0 0 -155 0 -155 -155 0 -155 0 0
-155 0 -155 -155 0 -154 0 -3 -148 -3 -147 -152 -3 -153 -3 0 -154 0 -155
-150 0 -149 0 -3 -152 -3 -153 -152 -3 -153 -3 0 154 c0 85 -2 156 -4 158 -2
2 -72 3 -155 1 l-151 -3 0 -155 0 -154 -155 0 -155 0 0 155 0 155 -150 0 -150
0 0 -155 0 -155 -155 0 -155 0 0 -155 0 -155 -155 0 -155 0 0 155 0 155 -155
0 -155 0 0 155 0 155 -150 0 -149 0 -3 -152 -3 -153 -152 -3 -153 -3 0 -155 0
-155 -155 2 -155 1 0 154 0 154 -155 0 -155 0 0 155 0 155 -150 0 -150 0 0
-155 0 -155 -155 0 -155 0 0 -155 0 -155 -155 0 -155 0 0 155 0 154 -152 3
-153 3 -3 153 -3 152 -149 0 -150 0 0 -155 0 -155 -155 0 -155 0 0 -155 0
-155 -155 0 -155 0 0 155 0 155 -155 0 -155 0 0 155 0 155 -150 0 -150 0 0
-155 0 -155 -155 0 -155 0 0 154 0 155 -151 3 c-83 2 -153 1 -155 -1 -2 -2 -4
-73 -4 -158 l0 -154 -152 3 -153 3 -3 153 -3 152 -149 0 -150 0 0 155 0 154
-152 3 -153 3 -3 148 -3 147 -154 0 -155 0 0 155 0 155 -155 0 -155 0 0 155 0
155 155 0 155 0 0 155 0 155 155 0 155 0 0 150 0 150 -155 0 -155 0 0 155 0
155 -155 0 -155 0 0 155 0 155 155 0 155 0 0 155 0 154 -152 3 -153 3 -3 148
-3 147 156 0 155 0 0 155 0 155 -155 0 -155 0 0 155 0 155 155 0 155 0 0 155
0 155 155 0 155 0 0 150 0 150 -155 0 -155 0 0 155 0 155 154 0 155 0 3 151
c2 83 1 153 -1 155 -2 2 -73 4 -158 4 l-153 0 0 155 0 155 -155 0 -155 0 0
150 0 150 155 0 155 0 0 -150 0 -150 155 0 154 0 3 148 3 147 153 3 152 3 0
154 0 155 150 0 150 0 0 155 0 155 155 0 155 0 0 -153 c0 -85 2 -156 4 -158 2
-2 72 -3 155 -1 l151 3 0 155 0 154 155 0 155 0 0 -155 0 -155 150 0 150 0 0
155 0 155 155 0 155 0 0 155 0 156 155 -2 155 -1 0 -154z m-2770 -6459 l0
-155 -155 0 -155 0 0 155 0 155 155 0 155 0 0 -155z m9230 0 l0 -155 -155 0
-155 0 0 155 0 155 155 0 155 0 0 -155z"/>
<path d="M3072 6914 l3 -156 153 1 152 2 0 -156 0 -155 -155 0 -155 0 0 155 0
155 -155 0 -155 0 0 -155 0 -155 -150 0 -150 0 0 155 0 155 -155 0 -155 0 0
-155 0 -155 -155 0 -155 0 0 155 0 156 -152 -3 -153 -3 0 -153 0 -152 -152 0
-153 0 0 -152 0 -153 -155 3 -156 3 3 -153 3 -153 153 -3 152 -3 0 -154 0
-155 -155 0 -156 0 3 -152 3 -153 153 -3 152 -3 0 -149 0 -150 -155 0 -156 0
2 -152 1 -153 -156 -3 -156 -3 0 -154 0 -155 153 0 c85 0 156 -2 158 -4 2 -2
3 -72 1 -155 l-3 -151 -155 0 -154 0 0 -150 0 -150 155 0 155 0 0 -155 0 -155
-155 0 -155 0 0 -155 0 -155 155 0 155 0 0 -155 0 -155 155 0 155 0 0 -150 0
-150 -155 0 -155 0 0 -155 0 -155 -155 0 -155 0 0 -155 0 -155 155 0 155 0 0
-139 c0 -77 3 -146 6 -155 5 -14 28 -16 155 -16 l149 0 0 155 0 155 150 0 150
0 0 -155 0 -156 -137 1 c-76 1 -144 1 -150 0 -10 0 -13 -37 -13 -150 l0 -150
153 0 152 0 -3 -155 -3 -155 156 0 155 0 0 155 0 155 155 0 155 0 0 -155 0
-155 155 0 155 0 0 155 0 155 150 0 150 0 0 -155 0 -155 155 0 155 0 0 -155 0
-155 155 0 155 0 0 155 0 155 155 0 155 0 0 155 0 155 150 0 150 0 0 -155 0
-155 155 0 155 0 0 -155 0 -155 155 0 155 0 0 155 0 155 155 0 155 0 0 155 0
155 150 0 150 0 0 -155 0 -155 155 0 155 0 0 -155 0 -155 155 0 155 0 0 155 0
155 155 0 155 0 0 155 0 155 150 0 150 0 0 -155 0 -155 155 0 155 0 0 -155 0
-155 155 0 155 0 0 155 0 155 155 0 155 0 0 155 0 155 150 0 150 0 0 -155 0
-155 155 0 155 0 0 155 0 155 155 0 155 0 0 -155 0 -155 155 0 156 0 -3 155
-3 155 153 0 152 0 0 149 c0 89 -4 151 -10 153 -5 2 -73 2 -150 0 l-139 -3 -3
-147 -3 -147 -152 -3 -153 -3 0 150 0 150 153 3 152 3 3 152 3 153 149 0 150
0 0 -155 0 -155 149 0 c127 0 150 2 155 16 3 9 6 78 6 155 l0 139 155 0 155 0
0 155 0 155 -155 0 -155 0 0 155 0 155 -155 0 -155 0 0 150 0 150 155 0 155 0
0 155 0 155 155 0 155 0 0 155 0 155 -155 0 -155 0 0 155 0 155 155 0 155 0 0
150 0 150 -154 0 -155 0 -3 151 c-2 83 -1 153 1 155 2 2 73 4 158 4 l153 0 0
155 0 154 -156 3 -156 3 1 153 2 152 -156 0 -155 0 0 150 0 149 153 3 152 3 3
153 3 152 -156 0 -155 0 0 155 0 154 153 3 152 3 3 153 3 152 154 0 155 0 0
150 0 150 -157 0 -158 0 0 152 0 153 -152 3 -153 3 0 -156 0 -155 -152 0 -153
0 0 152 0 153 -152 3 -153 3 0 -156 0 -155 -155 0 -155 0 0 -150 0 -150 -155
0 -155 0 0 150 0 150 -150 0 -150 0 0 155 0 156 -152 -3 -153 -3 -3 -152 -3
-153 -154 0 -155 0 0 155 0 156 153 -2 152 -1 3 156 3 156 -156 0 -155 0 0
-155 0 -155 -155 0 -155 0 0 155 0 155 -150 0 -150 0 0 -155 0 -155 -155 0
-155 0 0 155 0 155 -155 0 -155 0 0 -155 0 -155 -155 0 -155 0 0 -155 0 -155
-150 0 -150 0 0 155 0 155 -155 0 -155 0 0 155 0 155 -155 0 -155 0 0 -155 0
-155 -155 0 -155 0 0 155 0 155 -150 0 -150 0 0 -155 0 -155 -155 0 -155 0 0
155 0 155 -155 0 -156 0 3 -156z m918 -309 l0 -155 155 0 154 0 3 153 3 152
153 3 152 3 0 -156 0 -155 155 0 155 0 0 -150 0 -150 150 0 150 0 0 150 0 150
155 0 155 0 0 155 0 156 153 -3 152 -3 3 -152 3 -153 154 0 155 0 0 155 0 155
150 0 150 0 0 -155 0 -155 155 0 155 0 0 -150 0 -149 153 -3 152 -3 3 -152 3
-153 155 0 155 0 -3 153 -3 152 -152 3 -153 3 0 149 0 150 155 0 155 0 0 -150
0 -149 148 -3 147 -3 3 -152 3 -153 154 0 155 0 0 155 0 156 153 -3 152 -3 3
-152 3 -152 152 -3 152 -3 3 -152 3 -153 149 0 150 0 0 -155 0 -155 -150 0
c-113 0 -150 3 -150 13 -1 6 -1 76 0 155 l1 142 -156 0 -155 0 0 -155 0 -155
155 0 155 0 0 -150 0 -150 150 0 150 0 0 -155 0 -155 154 0 154 0 1 -155 2
-155 -156 0 -155 0 0 -155 0 -154 153 -3 152 -3 3 -147 3 -148 -156 0 -155 0
0 -155 0 -154 153 -3 152 -3 3 -152 3 -153 -156 0 -155 0 0 -155 0 -155 -150
0 -150 0 0 -150 0 -150 150 0 150 0 0 -155 0 -155 155 0 156 0 -3 -152 -3
-153 -152 -3 -153 -3 0 156 0 155 -150 0 -150 0 0 -155 0 -155 -155 0 -155 0
0 -155 0 -156 -152 2 -153 1 -3 -151 -3 -151 -154 0 -155 0 0 148 c0 82 -2
151 -4 153 -2 2 -70 3 -150 1 l-146 -3 0 -150 0 -149 -155 0 -155 0 0 -155 0
-155 -155 0 -155 0 0 155 0 155 -155 0 -155 0 0 150 0 150 -150 0 -150 0 0
-150 0 -150 -155 0 -155 0 0 -155 0 -155 -155 0 -155 0 0 155 0 155 -155 0
-155 0 0 150 0 150 -150 0 -150 0 0 -150 0 -150 -155 0 -155 0 0 -155 0 -155
-155 0 -155 0 0 155 0 155 -155 0 -155 0 0 150 0 150 -150 0 -150 0 0 -150 0
-150 -155 0 -155 0 0 -155 0 -155 -155 0 -155 0 0 155 0 155 -155 0 -155 0 0
150 c0 93 4 150 10 150 6 0 74 1 153 1 l142 0 3 -150 3 -151 154 0 155 0 0
150 c0 113 -3 150 -12 150 -7 1 -77 1 -155 0 l-143 -1 0 156 0 155 -155 0
-155 0 0 -155 0 -156 -147 2 -148 1 -3 -151 -3 -151 -154 0 -155 0 0 148 c0
82 -2 151 -4 153 -2 2 -72 3 -155 1 l-151 -3 0 -150 0 -150 -152 3 -153 3 -3
147 -3 148 156 0 155 0 0 155 0 155 -155 0 -156 0 3 153 3 152 153 3 152 3 0
154 0 155 -155 0 -155 0 0 -155 0 -155 -150 0 -150 0 0 -155 0 -156 -152 3
-153 3 -3 152 -3 153 156 0 155 0 0 155 0 155 150 0 150 0 0 150 0 150 -150 0
-150 0 0 155 0 154 -152 3 -153 3 0 150 0 150 153 3 152 3 0 154 0 155 -155 0
-156 0 3 148 3 147 153 3 152 3 0 154 0 155 -155 0 -156 0 2 155 1 155 154 0
154 0 0 155 0 155 150 0 150 0 0 150 0 150 155 0 155 0 0 155 0 155 -155 0
-156 0 1 -142 c1 -79 1 -149 0 -155 0 -10 -37 -13 -150 -13 l-150 0 0 155 0
155 150 0 149 0 3 153 3 152 152 3 152 3 3 152 3 152 153 3 152 3 0 149 0 150
155 0 155 0 0 -152 0 -153 150 3 150 3 0 150 0 149 155 0 155 0 0 -150 0 -149
-152 -3 -153 -3 -3 -152 -3 -153 155 0 155 0 3 153 3 152 153 3 152 3 0 149 0
150 155 0 155 0 0 155 0 155 150 0 150 0 0 -155z m-2150 -305 l0 -150 -155 0
-155 0 0 -155 0 -155 -150 0 -151 0 3 153 3 152 148 3 147 3 0 143 c0 78 3
146 7 149 3 4 73 7 155 7 l148 0 0 -150z m6768 -2 l3 -147 149 -3 150 -3 0
153 0 153 153 -3 152 -3 3 -147 3 -147 -153 -3 -153 -3 -3 -152 -3 -153 -149
0 -150 0 0 155 0 155 -155 0 -155 0 0 150 0 151 153 -3 152 -3 3 -147z"/>
<path d="M3690 6300 l0 -149 -152 -3 -153 -3 -3 -152 -3 -153 -154 0 -155 0 0
-155 0 -155 -155 0 -155 0 0 155 0 155 -150 0 -149 0 -3 153 -3 152 -152 3
-153 3 0 -156 0 -155 -155 0 -155 0 0 -155 0 -155 155 0 155 0 0 -155 0 -155
-155 0 -155 0 0 -150 0 -149 -152 -3 -153 -3 -3 -152 -3 -153 -149 0 -150 0 0
-155 0 -155 150 0 149 0 3 -152 3 -153 153 -3 152 -3 0 -149 0 -149 -152 -3
-153 -3 0 -150 0 -150 153 -3 152 -3 0 -154 0 -155 -155 0 -156 0 3 -152 3
-153 153 -3 152 -3 0 -149 0 -150 155 0 155 0 0 -155 0 -155 -155 0 -155 0 0
-155 0 -155 155 0 155 0 0 -155 0 -155 155 0 155 0 0 155 0 155 150 0 150 0 0
155 0 155 155 0 155 0 0 -155 0 -155 155 0 155 0 0 -155 0 -155 155 0 155 0 0
155 0 155 150 0 149 0 3 -153 3 -152 153 -3 152 -3 0 -149 0 -150 155 0 155 0
0 150 0 150 155 0 155 0 0 155 0 155 150 0 150 0 0 -155 0 -155 155 0 155 0 0
-150 0 -150 155 0 155 0 0 150 0 149 153 3 152 3 3 153 3 152 149 0 150 0 0
-155 0 -155 155 0 155 0 0 155 0 155 155 0 155 0 0 -155 0 -156 -142 1 c-79 1
-149 1 -155 0 -10 0 -13 -37 -13 -150 l0 -150 155 0 155 0 0 150 0 150 155 0
155 0 0 155 0 155 150 0 150 0 0 -154 0 -154 155 -1 155 -2 0 156 0 155 155 0
155 0 0 155 0 155 155 0 155 0 0 155 0 155 -155 0 -155 0 0 150 0 149 153 3
152 3 3 153 3 152 -156 0 -155 0 0 155 0 154 153 3 152 3 0 150 0 150 -152 3
-153 3 0 149 0 149 153 3 152 3 3 153 3 152 149 0 150 0 0 155 0 155 -150 0
-149 0 -3 153 -3 152 -152 3 -153 3 0 149 0 150 -155 0 -155 0 0 155 0 155
155 0 155 0 0 155 0 155 -155 0 -155 0 0 -155 0 -155 -155 0 -155 0 0 155 0
155 -150 0 -150 0 0 -155 0 -155 -155 0 -155 0 0 155 0 155 -155 0 -154 0 -3
153 -3 152 -150 0 -150 0 -3 -152 -3 -153 -149 0 -150 0 0 155 0 155 150 0
150 0 0 150 0 150 -150 0 -150 0 0 -150 0 -150 -155 0 -155 0 0 150 0 150
-155 0 -155 0 0 -150 0 -150 -155 0 -155 0 0 -155 0 -155 -150 0 -150 0 0 155
0 155 -155 0 -155 0 0 150 0 150 -155 0 -155 0 0 -150 0 -150 -155 0 -155 0 0
150 0 150 -150 0 -150 0 0 -150z m300 -305 l0 -155 155 0 154 0 3 153 3 152
153 3 152 3 0 -156 0 -155 155 0 155 0 0 -155 0 -155 150 0 150 0 0 155 0 155
155 0 155 0 0 155 0 156 153 -3 152 -3 3 -152 3 -153 154 0 155 0 0 -155 0
-155 150 0 150 0 0 155 0 155 155 0 155 0 0 -155 0 -155 155 0 155 0 0 -155 0
-155 155 0 155 0 0 155 0 155 150 0 150 0 0 -155 0 -155 155 0 155 0 0 -150 0
-150 155 0 155 0 0 -155 0 -154 153 -3 152 -3 0 -150 0 -150 -152 -3 -153 -3
0 -154 0 -155 -155 0 -155 0 0 -150 0 -150 155 0 155 0 0 -155 0 -155 -155 0
-155 0 0 -155 0 -155 155 0 155 0 0 -155 0 -155 -155 0 -155 0 0 -150 0 -150
155 0 155 0 0 -155 0 -155 -155 0 -155 0 0 -155 0 -155 -155 0 -155 0 0 155 0
155 -150 0 -150 0 0 -155 0 -155 -155 0 -155 0 0 155 0 155 -155 0 -155 0 0
-155 0 -155 -155 0 -155 0 0 155 0 155 -150 0 -150 0 0 -155 0 -155 -155 0
-155 0 0 -155 0 -155 -155 0 -155 0 0 155 0 155 -155 0 -155 0 0 155 0 155
-150 0 -150 0 0 -155 0 -155 -155 0 -155 0 0 -155 0 -155 -155 0 -155 0 0 155
0 155 -155 0 -155 0 0 155 0 155 -150 0 -150 0 0 -155 0 -155 -155 0 -155 0 0
155 0 155 -155 0 -155 0 0 155 0 155 -155 0 -155 0 0 -155 0 -155 -150 0 -150
0 0 -155 0 -155 -155 0 -155 0 0 155 0 155 155 0 155 0 0 155 0 155 -155 0
-155 0 0 150 0 150 -155 0 -155 0 0 155 0 155 155 0 155 0 0 155 0 155 -155 0
-155 0 0 155 0 155 155 0 155 0 0 150 0 150 -155 0 -155 0 0 155 0 154 -152 3
-153 3 0 150 0 150 153 3 152 3 0 154 0 155 155 0 155 0 0 150 0 150 155 0
155 0 0 155 0 155 -155 0 -155 0 0 155 0 155 155 0 155 0 0 -155 0 -155 150 0
150 0 0 -155 0 -155 155 0 155 0 0 155 0 155 155 0 155 0 0 155 0 155 155 0
155 0 0 155 0 155 150 0 150 0 0 -155z"/>
<path d="M3690 5685 l0 -155 -155 0 -155 0 0 -155 0 -155 -155 0 -155 0 0
-150 0 -150 -155 0 -155 0 0 150 0 150 -150 0 -150 0 0 -150 0 -150 -155 0
-155 0 0 -155 0 -155 -155 0 -155 0 0 -155 0 -155 155 0 155 0 0 -155 0 -155
155 0 155 0 0 -150 0 -150 -155 0 -155 0 0 -155 0 -155 155 0 155 0 0 -155 0
-155 -155 0 -155 0 0 -155 0 -155 155 0 155 0 0 -150 0 -150 150 0 150 0 0
150 0 150 155 0 155 0 0 -150 0 -150 155 0 155 0 0 -155 0 -155 155 0 155 0 0
155 0 155 150 0 150 0 0 -155 0 -155 155 0 155 0 0 -155 0 -155 155 0 155 0 0
155 0 155 155 0 155 0 0 155 0 155 150 0 150 0 0 -155 0 -155 155 0 155 0 0
-155 0 -155 155 0 155 0 0 155 0 155 155 0 155 0 0 155 0 155 150 0 150 0 0
-155 0 -155 155 0 155 0 0 155 0 155 155 0 155 0 0 -155 0 -155 155 0 155 0 0
155 0 155 150 0 150 0 0 -155 0 -155 155 0 155 0 0 155 0 155 -155 0 -155 0 0
150 0 150 155 0 155 0 0 155 0 155 -155 0 -155 0 0 155 0 155 155 0 155 0 0
155 0 155 -155 0 -155 0 0 150 0 150 155 0 155 0 0 155 0 155 155 0 155 0 0
155 0 155 -155 0 -155 0 0 155 0 155 -155 0 -155 0 0 150 0 150 -150 0 -150 0
0 -150 0 -150 -155 0 -155 0 0 150 0 150 -155 0 -155 0 0 155 0 155 -155 0
-155 0 0 -155 0 -155 -150 0 -150 0 0 155 0 155 -155 0 -155 0 0 155 0 155
-155 0 -155 0 0 -155 0 -155 -155 0 -155 0 0 -155 0 -155 -150 0 -150 0 0 155
0 155 -155 0 -155 0 0 155 0 155 -155 0 -155 0 0 -155 0 -155 -155 0 -155 0 0
155 0 155 -150 0 -150 0 0 -155z m300 -310 l0 -155 155 0 155 0 0 155 0 155
155 0 155 0 0 -155 0 -155 155 0 155 0 0 -150 0 -150 150 0 150 0 0 150 0 150
155 0 155 0 0 155 0 155 155 0 155 0 0 -155 0 -155 155 0 155 0 0 -150 0 -150
150 0 150 0 0 150 0 150 155 0 155 0 0 -150 0 -150 155 0 155 0 0 -155 0 -155
155 0 155 0 0 155 0 155 150 0 150 0 0 -155 0 -155 155 0 155 0 0 -155 0 -155
-155 0 -155 0 0 -155 0 -155 -150 0 -150 0 0 -150 0 -150 150 0 150 0 0 -155
0 -155 -150 0 -150 0 0 -155 0 -155 150 0 150 0 0 -155 0 -155 -150 0 -150 0
0 -150 0 -150 -155 0 -155 0 0 150 0 150 -155 0 -155 0 0 -150 0 -150 -155 0
-155 0 0 150 0 150 -150 0 -150 0 0 -150 0 -150 -155 0 -155 0 0 -155 0 -155
-155 0 -155 0 0 155 0 155 -155 0 -155 0 0 150 0 150 -150 0 -150 0 0 -150 0
-150 -155 0 -155 0 0 -155 0 -155 -155 0 -155 0 0 155 0 155 -155 0 -155 0 0
150 0 150 -150 0 -150 0 0 -150 0 -150 -155 0 -155 0 0 150 0 150 -155 0 -155
0 0 155 0 155 -155 0 -155 0 0 -155 0 -155 -150 0 -150 0 0 155 0 155 150 0
150 0 0 155 0 155 -150 0 -150 0 0 155 0 155 150 0 150 0 0 150 0 150 -150 0
-150 0 0 155 0 155 -155 0 -155 0 0 155 0 155 155 0 155 0 0 155 0 155 150 0
150 0 0 -155 0 -155 155 0 155 0 0 155 0 155 155 0 155 0 0 150 0 150 155 0
155 0 0 155 0 155 150 0 150 0 0 -155z"/>
<path d="M3690 5070 l0 -150 -155 0 -155 0 0 -155 0 -155 -155 0 -155 0 0
-155 0 -155 -155 0 -155 0 0 155 0 155 -150 0 -150 0 0 -155 0 -155 150 0 150
0 0 -155 0 -155 155 0 155 0 0 -150 0 -150 -155 0 -155 0 0 -155 0 -155 155 0
155 0 0 -155 0 -155 155 0 155 0 0 -155 0 -155 155 0 155 0 0 155 0 155 150 0
150 0 0 -155 0 -155 155 0 155 0 0 -150 0 -150 155 0 155 0 0 150 0 150 155 0
155 0 0 155 0 155 150 0 150 0 0 -155 0 -155 155 0 155 0 0 -150 0 -150 155 0
155 0 0 150 0 150 155 0 155 0 0 155 0 155 150 0 150 0 0 -155 0 -155 155 0
155 0 0 155 0 155 155 0 155 0 0 -155 0 -155 155 0 155 0 0 155 0 155 -155 0
-155 0 0 155 0 155 155 0 155 0 0 155 0 155 -155 0 -155 0 0 150 0 150 155 0
155 0 0 155 0 155 150 0 150 0 0 155 0 155 -150 0 -150 0 0 -155 0 -155 -155
0 -155 0 0 155 0 155 -155 0 -155 0 0 155 0 155 -155 0 -155 0 0 -155 0 -155
-150 0 -150 0 0 155 0 155 -155 0 -155 0 0 150 0 150 -155 0 -155 0 0 -150 0
-150 -155 0 -155 0 0 -155 0 -155 -150 0 -150 0 0 155 0 155 -155 0 -155 0 0
150 0 150 -155 0 -155 0 0 -150 0 -150 -155 0 -155 0 0 150 0 150 -150 0 -150
0 0 -150z m300 -305 l0 -155 155 0 155 0 0 155 0 155 155 0 155 0 0 -155 0
-155 155 0 155 0 0 -155 0 -155 150 0 150 0 0 155 0 155 155 0 155 0 0 155 0
155 155 0 155 0 0 -155 0 -155 155 0 155 0 0 -155 0 -155 150 0 150 0 0 155 0
155 155 0 155 0 0 -155 0 -155 155 0 155 0 0 -155 0 -155 -155 0 -155 0 0
-150 0 -150 155 0 155 0 0 -155 0 -155 -155 0 -155 0 0 -155 0 -155 -155 0
-155 0 0 155 0 155 -150 0 -150 0 0 -155 0 -155 -155 0 -155 0 0 -155 0 -155
-155 0 -155 0 0 155 0 155 -155 0 -155 0 0 155 0 155 -150 0 -150 0 0 -155 0
-155 -155 0 -155 0 0 -155 0 -155 -155 0 -155 0 0 155 0 155 -155 0 -155 0 0
155 0 155 -150 0 -150 0 0 -155 0 -155 -155 0 -155 0 0 155 0 155 -155 0 -155
0 0 155 0 155 155 0 155 0 0 150 0 150 -155 0 -155 0 0 155 0 155 155 0 155 0
0 155 0 155 155 0 155 0 0 155 0 155 150 0 150 0 0 -155z"/>
<path d="M3690 4455 l0 -155 -155 0 -155 0 0 -155 0 -155 155 0 155 0 0 -150
0 -150 -155 0 -155 0 0 -155 0 -155 155 0 155 0 0 155 0 155 150 0 150 0 0
150 0 150 155 0 155 0 0 -150 0 -149 -152 -3 -153 -3 -3 -152 -3 -153 156 0
155 0 0 -155 0 -155 155 0 155 0 0 155 0 155 155 0 155 0 0 155 0 155 150 0
150 0 0 -155 0 -155 155 0 155 0 0 -155 0 -155 155 0 155 0 0 155 0 155 155 0
156 0 -3 153 -3 152 -152 3 -153 3 0 149 0 150 155 0 155 0 0 -150 0 -150 150
0 150 0 0 -155 0 -155 155 0 155 0 0 155 0 155 -155 0 -155 0 0 150 0 150
-150 0 -150 0 0 155 0 155 -155 0 -155 0 0 155 0 155 -155 0 -155 0 0 -155 0
-155 -155 0 -155 0 0 -155 0 -155 -150 0 -150 0 0 155 0 155 -155 0 -155 0 0
155 0 155 -155 0 -155 0 0 -155 0 -155 -155 0 -155 0 0 155 0 155 -150 0 -150
0 0 -155z m300 -310 l0 -155 -150 0 -150 0 0 155 0 155 150 0 150 0 0 -155z
m620 0 l0 -155 155 0 155 0 0 -150 0 -150 -155 0 -155 0 0 -155 0 -155 -155 0
-155 0 0 155 0 155 155 0 155 0 0 150 0 150 -155 0 -155 0 0 155 0 155 155 0
155 0 0 -155z m1230 0 l0 -155 -155 0 -155 0 0 -150 0 -150 155 0 155 0 0
-155 0 -155 -155 0 -155 0 0 155 0 155 -155 0 -155 0 0 150 0 150 155 0 155 0
0 155 0 155 155 0 155 0 0 -155z"/>
<path d="M6452 4148 l3 -153 153 -3 152 -3 0 156 0 155 -155 0 -156 0 3 -152z"/>
<path d="M1230 3840 l0 -150 150 0 150 0 0 150 0 150 -150 0 -150 0 0 -150z"/>
<path d="M8610 3840 l0 -150 150 0 150 0 0 150 0 150 -150 0 -150 0 0 -150z"/>
<path d="M1230 3225 l0 -155 149 0 c130 0 150 2 153 16 2 9 2 79 0 155 l-3
139 -150 0 -149 0 0 -155z"/>
<path d="M8608 3241 c-2 -76 -2 -146 0 -155 3 -14 23 -16 153 -16 l149 0 0
155 0 155 -149 0 -150 0 -3 -139z"/>
<path d="M9220 6915 l0 -155 135 -1 c74 -1 143 -2 153 -3 15 -1 17 14 20 157
l3 157 -156 0 -155 0 0 -155z"/>
<path d="M4920 7530 l0 -150 150 0 150 0 0 150 0 150 -150 0 -150 0 0 -150z"/>
<path d="M9840 7530 l0 -150 150 0 150 0 0 150 0 150 -150 0 -150 0 0 -150z"/>
<path d="M0 2610 l0 -150 150 0 150 0 0 150 0 150 -150 0 -150 0 0 -150z"/>
<path d="M9840 2610 l0 -150 150 0 150 0 0 150 0 150 -150 0 -150 0 0 -150z"/>
<path d="M1237 304 c-4 -4 -7 -74 -7 -156 l0 -148 150 0 150 0 0 150 0 150
-129 0 c-71 0 -136 2 -143 5 -8 3 -17 2 -21 -1z"/>
<path d="M8748 302 l-138 -3 0 -149 0 -150 150 0 151 0 -3 152 c-2 91 -7 152
-13 152 -5 1 -72 0 -147 -2z"/>
<path d="M0 150 l0 -150 150 0 150 0 0 150 0 150 -150 0 -150 0 0 -150z"/>
<path d="M4920 150 l0 -150 150 0 150 0 0 150 0 150 -150 0 -150 0 0 -150z"/>
<path d="M9840 150 l0 -150 150 0 150 0 0 150 0 150 -150 0 -150 0 0 -150z"/>
</g>
</svg>
